# xmcd
#
# Track frame offsets:
#	150
#	11190
#	29790
#
# Disc length: 789 seconds
#
# Revision: 1
# Processed by: cddbd v1.5PL3 Copyright (c) Steve Scherf et al.
# Submitted via: CDex 1.50Beta5
#
DISCID=23031303
DTITLE=Smashing Pumpkins - Machina II: Cr03
DYEAR=1900
DGENRE=Rock
TTITLE0=Intro
TTITLE1=自由の女神
TTITLE2=Info
EXTD=
EXTT0=
EXTT1=
EXTT2=
PLAYORDER=
